<?xml version="1.0" standalone="no"?>
<!DOCTYPE svg PUBLIC "-//W3C//DTD SVG 20010904//EN"
 "http://www.w3.org/TR/2001/REC-SVG-20010904/DTD/svg10.dtd">
<svg version="1.0" xmlns="http://www.w3.org/2000/svg"
 width="285.000000pt" height="285.000000pt" viewBox="0 0 285.000000 285.000000"
 preserveAspectRatio="xMidYMid meet">

<g transform="translate(0.000000,285.000000) scale(0.100000,-0.100000)" stroke="none">
<path d="M6 2834 c-11 -29 -7 -444 5 -444 5 0 8 4 5 9 -10 15 33 20 45 5 9
-11 6 -16 -16 -24 -14 -5 -31 -10 -36 -10 -5 0 -9 -48 -9 -110 0 -67 4 -110
10 -110 6 0 10 -5 10 -11 0 -5 -4 -7 -10 -4 -6 4 -10 -133 -10 -397 0 -250 4
-397 10 -388 5 8 12 11 16 8 4 -4 -1 -18 -9 -32 -15 -22 -16 -80 -17 -507 l0
-482 23 21 c13 12 26 22 29 22 12 0 154 84 178 105 14 13 63 43 108 68 46 24
79 47 74 51 -5 3 -12 14 -15 25 -3 15 -1 18 12 14 9 -3 21 -12 28 -21 10 -12
18 -12 44 -3 56 19 56 12 -1 -15 -38 -18 -50 -28 -41 -33 9 -6 -1 -11 -30 -16
-63 -10 -84 -25 -29 -19 39 3 41 3 16 -6 -16 -5 -39 -19 -52 -31 -13 -12 -30
-19 -38 -16 -8 3 -20 -1 -26 -9 -7 -8 -17 -14 -22 -14 -11 0 -66 -40 -128 -93
-25 -21 -51 -43 -58 -49 -11 -8 -13 -35 -10 -112 3 -55 8 -109 13 -119 4 -9 3
-17 -2 -17 -6 0 -15 25 -22 55 -15 67 -31 80 -31 25 0 -25 -4 -39 -10 -35 -6
4 -10 -17 -10 -54 l0 -61 1425 0 1425 0 0 445 c0 339 -3 445 -12 445 -9 0 -9
3 0 12 17 17 16 142 -2 157 -8 6 -16 20 -19 31 -4 17 -2 18 14 9 19 -10 19 -4
18 216 -1 141 -5 225 -12 225 -5 0 -5 6 2 14 9 11 9 15 -1 19 -10 4 -10 6 0 6
13 1 17 51 4 51 -4 0 -17 -7 -29 -15 -21 -14 -23 -14 -35 5 -7 11 -18 20 -25
20 -7 0 -13 7 -13 15 0 23 16 18 39 -11 20 -25 22 -26 46 -10 l25 16 -1 455
c0 276 -3 455 -9 455 -6 0 -6 10 0 26 6 14 10 70 10 124 0 97 0 98 -22 93 -22
-4 -22 -4 -3 8 30 18 31 19 15 29 -19 12 -77 13 -85 1 -3 -5 4 -12 15 -16 23
-7 27 -25 5 -25 -7 0 -18 -8 -24 -17 -8 -15 -11 -15 -27 -3 -16 14 -17 13 -12
-7 5 -18 1 -22 -29 -25 -40 -5 -54 10 -27 28 10 7 24 17 30 23 6 5 24 7 40 4
l29 -4 -25 15 c-14 8 -19 15 -12 16 6 0 12 4 12 9 0 6 -165 10 -428 10 -235 0
-418 -4 -407 -9 19 -7 19 -8 2 -15 -17 -7 -17 -8 0 -21 10 -7 28 -14 39 -14
12 0 24 -7 28 -15 6 -16 -28 -22 -38 -6 -3 5 -17 12 -30 15 -13 3 -46 15 -73
27 -26 12 -64 23 -83 25 l-34 3 32 -19 c37 -23 45 -48 10 -29 -13 6 -38 22
-55 36 -31 22 -38 23 -135 18 -57 -2 -143 -8 -193 -12 -49 -4 -94 -6 -98 -5
-5 1 -6 -2 -2 -8 3 -5 16 -10 28 -11 12 0 16 -3 9 -6 -18 -7 -72 17 -69 31 1
8 -45 11 -163 12 l-165 2 -16 -32 c-9 -17 -25 -32 -37 -34 -15 -2 -22 -10 -22
-26 0 -13 -8 -31 -19 -40 -17 -16 -18 -16 -14 8 3 13 1 32 -5 41 -7 13 -4 23
10 37 10 10 23 16 28 13 10 -6 40 17 40 29 0 3 -23 6 -51 6 -28 0 -48 -4 -44
-9 3 -5 -4 -13 -16 -16 -15 -5 -25 -2 -31 9 -8 14 -44 16 -323 15 -185 0 -317
-4 -320 -10 -4 -5 -13 -9 -21 -9 -8 0 -12 5 -9 10 3 6 -5 10 -18 10 -14 0 -28
-7 -31 -16z m334 -9 c7 -8 9 -15 6 -15 -4 0 -14 7 -22 15 -9 8 -11 15 -6 15 5
0 15 -7 22 -15z m205 5 c-3 -5 -11 -10 -16 -10 -6 0 -7 5 -4 10 3 6 11 10 16
10 6 0 7 -4 4 -10z m474 -6 c2 -2 -3 -4 -12 -4 -9 0 -17 -4 -17 -8 0 -5 -15
-9 -32 -10 -30 0 -31 1 -10 9 13 5 20 14 17 19 -4 7 3 8 22 4 15 -4 30 -8 32
-10z m650 -12 c43 -21 56 -47 16 -32 -14 5 -43 10 -63 10 -54 0 -112 11 -112
21 0 5 10 9 23 9 12 0 29 5 37 10 17 12 51 6 99 -18z m431 -6 c0 -5 -7 -3 -15
4 -8 7 -12 17 -9 22 7 10 24 -9 24 -26z m150 25 c0 -5 -10 -11 -22 -14 -22 -6
-22 -6 -4 8 23 17 26 18 26 6z m-802 -18 c-10 -2 -26 -2 -35 0 -10 3 -2 5 17
5 19 0 27 -2 18 -5z m1107 -3 c3 -5 -1 -10 -10 -10 -9 0 -13 5 -10 10 3 6 8
10 10 10 2 0 7 -4 10 -10z m-1407 -7 c-10 -2 -18 -9 -18 -14 0 -5 -12 -9 -27
-9 -27 1 -27 1 -9 15 11 8 31 14 45 14 17 -1 20 -3 9 -6z m-601 -23 c3 -11 12
-20 19 -20 8 0 14 -5 14 -11 0 -6 -9 -8 -22 -3 -28 8 -24 4 -32 32 -5 14 -3
22 4 22 7 0 14 -9 17 -20z m-457 0 c0 -5 -4 -10 -9 -10 -6 0 -13 5 -16 10 -3
6 1 10 9 10 9 0 16 -4 16 -10z m1343 -7 c-7 -2 -21 -2 -30 0 -10 3 -4 5 12 5
17 0 24 -2 18 -5z m-1403 -13 c0 -5 -2 -10 -4 -10 -3 0 -8 5 -11 10 -3 6 -1
10 4 10 6 0 11 -4 11 -10z m264 -6 c5 -14 4 -15 -9 -4 -17 14 -19 20 -6 20 5
0 12 -7 15 -16z m592 -9 c-15 -14 -32 -25 -38 -25 -6 0 -1 11 12 25 13 14 30
25 38 25 10 0 6 -9 -12 -25z m-366 5 c0 -12 -40 -34 -47 -26 -9 8 17 36 33 36
8 0 14 -4 14 -10z m-460 -15 c-7 -9 -15 -13 -17 -11 -7 7 7 26 19 26 6 0 6 -6
-2 -15z m350 -5 c0 -5 -5 -10 -11 -10 -5 0 -7 5 -4 10 3 6 8 10 11 10 2 0 4
-4 4 -10z m550 6 c0 -3 -4 -8 -10 -11 -5 -3 -10 -1 -10 4 0 6 5 11 10 11 6 0
10 -2 10 -4z m1564 -18 c9 -12 13 -24 11 -27 -5 -5 -45 34 -45 44 0 13 20 3
34 -17z m286 12 c0 -5 -7 -10 -15 -10 -7 0 -19 -8 -24 -17 -7 -13 -10 -14 -11
-4 0 13 28 40 43 41 4 0 7 -4 7 -10z m-2684 -27 c-10 -10 -19 5 -10 18 6 11 8
11 12 0 2 -7 1 -15 -2 -18z m524 18 c0 -5 -20 -16 -45 -25 -25 -8 -43 -11 -40
-6 3 5 19 11 35 15 16 4 32 11 35 16 8 12 15 12 15 0z m1500 -11 c0 -5 -2 -10
-4 -10 -3 0 -8 5 -11 10 -3 6 -1 10 4 10 6 0 11 -4 11 -10z m-1898 -12 c-8 -8
-8 -15 -1 -24 6 -7 8 -18 4 -24 -5 -8 -12 -3 -20 12 -12 24 -3 48 18 48 7 0 7
-4 -1 -12z m228 -13 c14 9 60 -2 60 -14 0 -18 -32 -20 -70 -5 -40 16 -47 24
-33 38 4 4 13 0 20 -9 6 -10 17 -14 23 -10z m270 4 c0 -5 -12 -9 -27 -9 -26 0
-26 1 -8 14 20 14 35 12 35 -5z m-658 -11 c-7 -7 -8 -16 -2 -23 6 -7 3 -11
-10 -12 -13 -1 -17 3 -13 13 3 8 -1 14 -8 15 -8 0 -5 4 6 9 29 12 41 12 27 -2z
m788 7 c0 -2 -12 -11 -27 -19 -16 -9 -21 -15 -13 -16 8 0 1 -10 -17 -21 -18
-11 -40 -19 -50 -16 -16 4 -16 5 2 12 11 5 33 21 48 37 25 24 57 38 57 23z
m1577 -9 c-4 -12 -37 -9 -50 3 -4 4 6 8 23 8 18 0 29 -5 27 -11z m252 -12 c-6
-8 -18 -14 -27 -14 -13 0 -12 3 4 19 21 21 41 17 23 -5z m-2095 4 c-5 -7 -1
-9 13 -6 18 5 19 3 9 -18 -6 -13 -17 -24 -23 -24 -7 0 -13 -7 -13 -15 0 -8 -7
-15 -15 -15 -8 0 -15 2 -15 4 0 2 -3 11 -6 19 -4 12 0 14 15 10 18 -5 21 -1
21 26 0 17 5 31 11 31 5 0 7 -5 3 -12z m2176 2 c0 -5 -5 -10 -11 -10 -5 0 -7
5 -4 10 3 6 8 10 11 10 2 0 4 -4 4 -10z m-2010 -12 c0 -15 -49 -40 -61 -32 -5
3 -9 12 -9 20 0 10 7 13 24 8 13 -3 27 -1 30 5 9 15 16 14 16 -1z m1480 -8 c0
-5 -4 -10 -10 -10 -5 0 -10 5 -10 10 0 6 5 10 10 10 6 0 10 -4 10 -10z m-1835
-10 c3 -5 -1 -10 -10 -10 -9 0 -13 5 -10 10 3 6 8 10 10 10 2 0 7 -4 10 -10z
m1785 -51 c0 -16 -19 -9 -30 10 -17 33 -11 48 10 22 11 -13 20 -27 20 -32z
m145 43 c-6 -4 -10 -17 -9 -29 2 -27 -2 -28 -23 -8 -20 20 -11 40 18 42 13 1
19 -1 14 -5z m-2237 -32 c7 -11 9 -20 4 -20 -4 0 -15 9 -25 20 -11 14 -13 20
-4 20 7 0 18 -9 25 -20z m281 -12 l26 -11 -30 -7 c-18 -5 -22 -8 -11 -9 18 -1
19 -2 3 -14 -10 -6 -21 -26 -25 -42 -12 -44 -37 -39 -37 7 0 23 5 38 12 38 13
0 28 36 25 60 -1 11 0 11 4 2 4 -7 18 -18 33 -24z m71 22 c0 -5 -4 -10 -9 -10
-6 0 -13 5 -16 10 -3 6 1 10 9 10 9 0 16 -4 16 -10z m2008 -1 c-13 -7 -15 -15
-8 -33 7 -19 4 -28 -11 -42 -14 -13 -16 -19 -7 -25 8 -5 3 -11 -15 -18 -57
-22 -74 -8 -37 29 12 12 26 17 36 13 15 -5 16 -1 12 35 -7 46 -3 52 26 52 19
-1 19 -2 4 -11z m161 -25 c24 -41 25 -39 -9 -48 -22 -6 -23 -6 -8 7 11 9 14
18 8 27 -7 11 -12 12 -21 3 -16 -16 -38 -5 -32 17 3 11 11 16 19 13 8 -3 14 0
14 6 0 19 7 13 29 -25z m-2345 -2 c9 -18 11 -34 6 -42 -6 -9 -4 -17 3 -22 8
-5 5 -10 -10 -14 -13 -4 -21 -10 -18 -14 3 -4 -2 -13 -10 -20 -13 -10 -15 -9
-15 9 0 18 -4 21 -21 16 -16 -5 -20 -3 -17 6 3 8 15 13 30 11 32 -4 45 24 23
48 -8 9 -15 24 -15 33 0 27 28 20 44 -11z m409 21 c11 -10 -24 -43 -44 -43
-17 0 -16 2 4 24 24 26 30 29 40 19z m337 2 c0 -2 -15 -12 -32 -21 l-33 -16
20 20 c18 19 45 29 45 17z m-520 -14 c0 -8 -52 -23 -59 -16 -1 2 0 8 4 14 8
13 55 15 55 2z m307 -11 c-14 -11 -29 -20 -34 -20 -11 1 37 40 49 40 6 0 -1
-9 -15 -20z m1463 -5 c-7 -9 -15 -13 -18 -10 -3 2 1 11 8 20 7 9 15 13 18 10
3 -2 -1 -11 -8 -20z m-2203 -11 c-3 -3 -12 -4 -19 -1 -8 3 -5 6 6 6 11 1 17
-2 13 -5z m500 -34 c-5 -21 3 -26 19 -11 5 6 14 4 22 -5 10 -11 10 -14 0 -14
-7 0 -23 -3 -35 -6 -19 -5 -23 -2 -23 18 0 23 7 38 18 38 2 0 2 -9 -1 -20z
m138 11 c10 -18 -17 -23 -33 -7 -15 15 -15 16 5 16 12 0 24 -4 28 -9z m44 -25
c-12 -13 -34 8 -25 23 5 8 11 7 21 -2 8 -7 10 -16 4 -21z m1749 22 c-3 -7 -13
-15 -24 -17 -16 -3 -17 -1 -5 13 16 19 34 21 29 4z m-2353 -29 c0 -21 -4 -24
-32 -22 -17 2 -44 -4 -60 -12 -47 -25 -61 -19 -47 19 5 12 9 13 25 3 15 -9 26
-8 54 7 19 11 35 23 35 28 0 6 6 8 13 6 6 -3 12 -16 12 -29z m711 16 c-11 -8
-25 -15 -30 -15 -6 0 -5 -4 2 -8 8 -6 -1 -15 -29 -31 -27 -16 -37 -26 -29 -31
8 -5 -1 -12 -24 -20 -42 -14 -59 -6 -31 14 10 7 15 18 11 24 -4 8 0 12 11 12
15 0 16 2 3 10 -12 8 -11 10 6 10 11 0 42 11 70 24 57 29 67 31 40 11z m1294
-6 c0 -5 -4 -9 -10 -9 -5 0 -10 7 -10 16 0 8 5 12 10 9 6 -3 10 -10 10 -16z
m540 11 c0 -5 -4 -10 -10 -10 -5 0 -10 5 -10 10 0 6 5 10 10 10 6 0 10 -4 10
-10z m52 -22 c-9 -9 -15 -9 -24 0 -9 9 -7 12 12 12 19 0 21 -3 12 -12z m-2332
-8 c0 -5 -5 -10 -11 -10 -5 0 -7 5 -4 10 3 6 8 10 11 10 2 0 4 -4 4 -10z
m2064 -21 c16 13 32 -2 21 -19 -3 -6 1 -13 9 -16 22 -8 20 -24 -2 -24 -10 0
-23 -5 -30 -12 -17 -17 -25 -3 -12 22 6 12 9 24 6 28 -3 3 -6 0 -6 -6 0 -7 -6
-12 -14 -12 -8 0 -16 -5 -18 -12 -3 -7 -10 -8 -21 -2 -16 9 -15 12 5 37 16 20
25 24 35 16 9 -8 17 -8 27 0z m-1794 -7 c0 -14 -11 -21 -26 -15 -8 3 -11 9 -8
14 7 11 34 12 34 1z m1656 -29 c-11 -11 -19 6 -11 24 8 17 8 17 12 0 3 -10 2
-21 -1 -24z m464 27 c0 -13 -28 -25 -38 -16 -3 4 0 11 8 16 20 13 30 12 30 0z
m-2605 -11 c11 -17 -1 -21 -15 -4 -8 9 -8 15 -2 15 6 0 14 -5 17 -11z m-78
-36 c-14 -15 -29 -24 -33 -21 -8 9 15 50 26 43 5 -3 12 0 15 6 4 5 10 8 13 4
3 -3 -6 -18 -21 -32z m817 23 c-3 -8 -1 -17 5 -20 6 -4 4 -13 -7 -24 -9 -10
-20 -14 -23 -9 -4 5 -16 4 -28 -3 -12 -6 -27 -9 -34 -6 -7 2 -3 5 8 5 17 1 17
3 5 11 -13 9 -13 10 0 10 8 0 29 11 45 25 36 29 36 29 29 11z m-331 -33 c-6
-15 -23 -18 -23 -4 0 5 3 17 6 26 5 12 9 14 14 4 5 -7 6 -18 3 -26z m259 15
c-7 -7 -12 -8 -12 -2 0 14 12 26 19 19 2 -3 -1 -11 -7 -17z m-609 -8 c21 0 -7
-20 -29 -20 -14 0 -23 -4 -20 -9 3 -5 0 -14 -8 -20 -18 -15 -45 14 -28 31 6 6
8 16 5 23 -3 10 4 11 34 4 21 -5 42 -9 46 -9z m2562 1 c-3 -6 -11 -11 -17 -11
-6 0 -6 6 2 15 14 17 26 13 15 -4z m-935 -71 c0 -13 1 -13 10 0 9 13 13 13 38
-1 24 -14 31 -14 47 -3 41 30 58 18 98 -64 33 -68 37 -87 37 -153 0 -41 7 -99
16 -129 8 -30 24 -93 35 -140 11 -46 22 -86 24 -89 8 -7 45 31 45 47 0 23 41
99 66 123 31 29 67 19 85 -23 10 -24 13 -73 12 -171 -2 -139 -6 -158 -52 -247
-5 -9 -12 -35 -16 -58 -8 -49 -37 -89 -68 -94 -21 -3 -22 -8 -24 -103 -2 -121
-18 -213 -49 -283 l-23 -52 28 -54 c96 -182 42 -397 -151 -594 -157 -161 -322
-252 -456 -252 -33 0 -54 10 -119 58 -43 32 -107 90 -143 129 -67 72 -178 246
-204 319 -8 23 -32 75 -54 116 -22 43 -43 98 -47 126 -4 28 -14 57 -22 64 -8
7 -19 23 -24 37 l-10 24 -27 -26 c-30 -29 -53 -37 -32 -12 10 12 9 15 -6 15
-13 1 -7 7 17 20 l37 19 -18 63 c-10 35 -22 85 -25 111 -6 43 -8 47 -28 41
-21 -6 -21 -6 2 17 l24 23 -29 22 c-18 15 -32 20 -38 14 -20 -20 -26 -9 -26
49 0 51 -6 68 -40 127 -22 38 -40 81 -40 95 0 15 -11 61 -25 104 -30 92 -41
181 -24 201 17 21 59 17 85 -7 21 -20 51 -18 38 2 -3 5 2 21 11 36 21 32 14
96 -20 168 -25 55 -28 70 -26 163 1 55 3 62 21 62 14 0 18 -5 13 -17 -6 -16
-5 -16 11 -4 12 10 20 11 28 3 6 -6 17 -8 26 -4 13 5 12 7 -4 13 -16 6 -16 8
-2 8 9 1 20 -3 23 -9 9 -14 45 11 45 32 0 26 55 51 80 38 22 -12 26 -25 10
-35 -5 -3 -10 -14 -10 -23 1 -15 3 -14 18 3 24 29 52 38 70 23 10 -8 13 -8 9
-2 -7 12 52 27 63 17 3 -3 4 -34 3 -69 -1 -59 7 -79 22 -54 3 6 23 10 43 10
28 0 33 -3 22 -10 -19 -13 -13 -12 30 1 78 23 142 39 161 39 40 0 143 64 117
72 -13 5 7 48 22 48 6 0 20 11 32 25 12 14 27 25 33 25 7 0 20 9 30 20 9 10
34 24 54 31 20 6 40 15 45 19 13 12 96 -22 96 -40z m-1540 25 c7 -8 21 -15 31
-15 11 0 19 -5 19 -10 0 -17 -73 0 -93 21 -17 18 -17 19 6 19 14 0 30 -7 37
-15z m2350 -6 c0 -6 -4 -7 -10 -4 -5 3 -10 11 -10 16 0 6 5 7 10 4 6 -3 10
-11 10 -16z m-2196 2 c3 -5 -4 -11 -16 -14 -25 -7 -33 -3 -23 12 8 13 32 14
39 2z m-399 -11 c3 -6 -6 -15 -20 -20 -36 -14 -45 -13 -45 4 0 21 54 34 65 16z
m74 -41 c-20 -12 -43 19 -27 38 9 11 13 10 26 -8 12 -18 13 -23 1 -30z m2463
29 c-7 -7 -12 -8 -12 -2 0 14 12 26 19 19 2 -3 -1 -11 -7 -17z m-2082 -8 c0
-5 -2 -10 -4 -10 -3 0 -8 5 -11 10 -3 6 -1 10 4 10 6 0 11 -4 11 -10z m1800
-6 c0 -8 -5 -12 -10 -9 -6 4 -8 11 -5 16 9 14 15 11 15 -7z m-2236 -20 c9 -3
16 -10 16 -15 0 -14 -57 -39 -87 -39 l-28 1 25 14 c14 8 33 14 44 15 15 0 16
3 6 15 -13 16 -3 20 24 9z m104 -6 c-2 -6 -10 -14 -16 -16 -7 -2 -10 2 -6 12
7 18 28 22 22 4z m549 -25 c-15 -16 -17 -16 -17 -1 0 9 6 18 13 21 20 7 22 -2
4 -20z m-86 -26 c-13 -13 -15 1 -4 30 7 17 8 17 11 -1 2 -10 -1 -23 -7 -29z
m1844 33 c3 -5 -1 -10 -9 -10 -9 0 -16 5 -16 10 0 6 4 10 9 10 6 0 13 -4 16
-10z m-2225 -20 c0 -11 -4 -20 -10 -20 -5 0 -10 9 -10 20 0 11 5 20 10 20 6 0
10 -9 10 -20z m80 16 c0 -9 -30 -14 -35 -6 -4 6 3 10 14 10 12 0 21 -2 21 -4z
m236 -23 c-4 -5 -12 -9 -17 -9 -5 -1 -13 -2 -19 -3 -5 0 -10 -10 -10 -21 0
-11 5 -20 10 -20 6 0 10 -4 10 -8 0 -4 -19 -8 -42 -7 -30 1 -43 5 -43 16 0 9
9 13 27 11 22 -2 26 1 21 14 -3 9 0 20 8 25 17 11 65 12 55 2z m886 -15 c-7
-7 -12 -8 -12 -2 0 6 3 14 7 17 3 4 9 5 12 2 2 -3 -1 -11 -7 -17z m-1306 1 c7
-12 -15 -31 -31 -26 -5 2 -11 11 -13 20 -4 19 32 24 44 6z m2149 -9 c-3 -5 -1
-10 6 -10 10 0 10 -3 1 -12 -9 -9 -15 -9 -23 -1 -12 12 -4 33 12 33 6 0 7 -4
4 -10z m-2280 -10 c3 -5 1 -10 -4 -10 -6 0 -11 5 -11 10 0 6 2 10 4 10 3 0 8
-4 11 -10z m180 0 c3 -6 -1 -7 -9 -4 -18 7 -21 14 -7 14 6 0 13 -4 16 -10z
m99 -11 c-3 -5 -10 -7 -15 -3 -5 3 -7 10 -3 15 3 5 10 7 15 3 5 -3 7 -10 3
-15z m83 5 c-3 -3 -12 -4 -19 -1 -8 3 -5 6 6 6 11 1 17 -2 13 -5z m43 -23
c-10 -20 -30 -29 -30 -14 0 8 34 41 38 38 2 -2 -1 -13 -8 -24z m-238 -12 c-9
-4 -20 -1 -24 5 -14 20 -8 24 17 13 20 -10 22 -13 7 -18z m1048 7 c0 -10 -48
-56 -59 -56 -15 0 -14 6 5 35 14 21 54 36 54 21z m-1170 -32 c0 -8 -4 -14 -10
-14 -5 0 -10 9 -10 21 0 11 5 17 10 14 6 -3 10 -13 10 -21z m2290 16 c0 -5 -4
-10 -10 -10 -5 0 -10 5 -10 10 0 6 5 10 10 10 6 0 10 -4 10 -10z m77 -32 c-3
-7 -5 -2 -5 12 0 14 2 19 5 13 2 -7 2 -19 0 -25z m-1769 -8 c-1 -17 -4 -33 -8
-35 -6 -3 -6 51 -1 63 5 11 10 -3 9 -28z m1926 -1 c-8 -14 -24 -10 -24 6 0 9
6 12 15 9 8 -4 12 -10 9 -15z m-2401 -21 c-15 -28 -17 -30 -23 -12 -5 14 -1
22 14 31 11 7 22 12 23 13 1 0 -6 -14 -14 -32z m-177 8 c20 -21 18 -23 -16
-18 -38 5 -39 22 -2 31 2 1 10 -5 18 -13z m88 -1 c-4 -8 -8 -15 -10 -15 -2 0
-4 7 -4 15 0 8 4 15 10 15 5 0 7 -7 4 -15z m376 11 c0 -2 -7 -7 -16 -10 -8 -3
-12 -2 -9 4 6 10 25 14 25 6z m1994 -41 c-4 -8 -10 -12 -15 -9 -14 8 -10 24 6
24 9 0 12 -6 9 -15z m76 11 c0 -11 -19 -15 -25 -6 -3 5 1 10 9 10 9 0 16 -2
16 -4z m-2217 -25 c6 -23 -10 -41 -36 -41 -16 0 -17 3 -7 15 10 13 9 15 -9 15
-31 0 -26 18 7 23 15 2 30 5 33 6 4 0 9 -8 12 -18z m2055 3 c-10 -10 -21 -13
-29 -8 -12 7 0 14 41 23 2 1 -3 -6 -12 -15z m-2188 -19 c0 -8 -4 -15 -9 -15
-5 0 -11 7 -15 15 -3 9 0 15 9 15 8 0 15 -7 15 -15z m215 5 c-3 -5 -13 -10
-21 -10 -8 0 -12 5 -9 10 3 6 13 10 21 10 8 0 12 -4 9 -10z m2215 -21 c0 -10
-4 -19 -10 -19 -5 0 -10 12 -10 26 0 14 4 23 10 19 6 -3 10 -15 10 -26z
m-2565 -18 c-3 -6 -11 -11 -17 -11 -6 0 -6 6 2 15 14 17 26 13 15 -4z m645 -1
c0 -11 3 -20 8 -20 4 0 7 -20 7 -44 0 -31 -5 -47 -17 -55 -16 -10 -18 -7 -19
16 -1 16 0 40 1 55 1 15 -4 36 -10 47 -9 18 -8 21 10 21 13 0 20 -7 20 -20z
m-220 -16 c0 -8 -4 -14 -9 -14 -11 0 -22 26 -14 34 9 9 23 -3 23 -20z m1790
16 c0 -5 -5 -10 -11 -10 -5 0 -7 5 -4 10 3 6 8 10 11 10 2 0 4 -4 4 -10z m118
-24 c3 -12 -1 -17 -10 -14 -7 3 -15 13 -16 22 -3 12 1 17 10 14 7 -3 15 -13
16 -22z m206 -1 c3 -8 1 -15 -4 -15 -6 0 -10 7 -10 15 0 8 2 15 4 15 2 0 6 -7
10 -15z m-2559 -5 c3 -5 -1 -10 -9 -10 -9 0 -16 5 -16 10 0 6 4 10 9 10 6 0
13 -4 16 -10z m2295 -12 c0 -6 -6 -5 -15 2 -8 7 -15 14 -15 16 0 2 7 1 15 -2
8 -4 15 -11 15 -16z m-2240 2 c0 -5 -9 -10 -21 -10 -11 0 -17 5 -14 10 3 6 13
10 21 10 8 0 14 -4 14 -10z m460 0 c0 -5 -4 -10 -9 -10 -6 0 -13 5 -16 10 -3
6 1 10 9 10 9 0 16 -4 16 -10z m-170 -16 c0 -8 -5 -12 -10 -9 -6 4 -8 11 -5
16 9 14 15 11 15 -7z m65 6 c3 -5 -1 -10 -9 -10 -9 0 -16 5 -16 10 0 6 4 10 9
10 6 0 13 -4 16 -10z m-278 -26 c-16 -9 -32 -13 -35 -9 -9 9 19 25 43 24 16 0
15 -2 -8 -15z m393 6 c0 -5 -4 -10 -9 -10 -6 0 -13 5 -16 10 -3 6 1 10 9 10 9
0 16 -4 16 -10z m-330 -42 c0 -22 -16 -23 -24 -2 -5 14 -9 14 -24 3 -9 -7 -6
-1 7 14 26 28 41 23 41 -15z m165 12 c16 -7 11 -9 -20 -9 -29 -1 -36 2 -25 9
17 11 19 11 45 0z m2055 -11 c0 -5 -7 -9 -15 -9 -9 0 -12 6 -9 15 6 15 24 11
24 -6z m-1850 7 c0 -3 -4 -8 -10 -11 -5 -3 -10 -1 -10 4 0 6 5 11 10 11 6 0
10 -2 10 -4z m2004 -27 c-8 -14 -24 -10 -24 6 0 9 6 12 15 9 8 -4 12 -10 9
-15z m-2104 -24 c-9 -11 -10 -15 -1 -15 7 0 9 -5 6 -10 -4 -6 -12 -4 -22 5
-14 14 -14 18 3 36 21 23 33 7 14 -16z m2135 15 c3 -5 1 -10 -4 -10 -6 0 -11
5 -11 10 0 6 2 10 4 10 3 0 8 -4 11 -10z m105 -32 c0 -19 -2 -20 -10 -8 -13
19 -13 30 0 30 6 0 10 -10 10 -22z m-2309 -49 c-13 -10 -30 -19 -39 -19 -8 0
0 10 19 23 40 28 55 24 20 -4z m199 16 c0 -8 -4 -15 -9 -15 -5 0 -14 7 -21 15
-10 13 -9 15 9 15 12 0 21 -6 21 -15z m1867 -15 c1 -11 -2 -20 -8 -20 -10 0
-12 23 -2 33 9 9 9 10 10 -13z m263 0 c0 -5 -4 -10 -10 -10 -5 0 -10 5 -10 10
0 6 5 10 10 10 6 0 10 -4 10 -10z m-307 -25 c-5 -13 -23 -22 -23 -11 0 15 14
35 21 31 4 -3 6 -12 2 -20z m177 10 c0 -8 -7 -15 -15 -15 -16 0 -20 12 -8 23
11 12 23 8 23 -8z m-2326 -10 c-9 -21 14 -45 43 -45 14 0 21 -4 18 -10 -3 -5
-1 -10 4 -10 6 0 11 -7 11 -15 0 -9 -9 -15 -24 -15 -17 0 -23 5 -22 18 0 9 -6
17 -14 17 -15 0 -27 24 -29 58 -1 9 3 17 9 17 5 0 7 -7 4 -15z m-124 1 c0 -2
-7 -7 -16 -10 -8 -3 -12 -2 -9 4 6 10 25 14 25 6z m180 -6 c-19 -13 -30 -13
-30 0 0 6 10 10 23 10 18 0 19 -2 7 -10z m2380 -25 c7 -9 11 -18 8 -20 -9 -10
-38 7 -38 21 0 18 14 18 30 -1z m-154 -50 c-7 -26 0 -31 22 -17 7 5 10 16 6
25 -3 10 -1 17 5 17 6 0 11 -7 11 -16 0 -11 6 -14 20 -9 11 3 20 3 20 -2 0
-15 -58 -34 -92 -31 -30 3 -31 4 -15 20 9 9 17 21 17 27 0 6 3 11 6 11 3 0 3
-11 0 -25z m-2361 -26 c-4 -5 -16 -9 -28 -9 -21 1 -21 1 -3 15 20 15 41 11 31
-6z m2279 5 c9 -3 16 -10 16 -16 0 -14 -43 -5 -48 10 -4 13 7 15 32 6z m-2223
-29 c0 -5 -9 -11 -21 -13 -20 -3 -27 8 -13 22 10 9 34 3 34 -9z m91 -7 c-17
-17 -15 -38 3 -38 20 0 19 -26 -1 -34 -10 -4 -14 -1 -11 6 2 7 -3 20 -12 28
-22 21 -27 55 -7 47 8 -3 18 -2 22 4 3 6 9 8 12 4 3 -3 0 -11 -6 -17z m2018
12 c0 -5 -4 -10 -10 -10 -5 0 -10 5 -10 10 0 6 5 10 10 10 6 0 10 -4 10 -10z
m-2085 -30 c-3 -5 -13 -10 -21 -10 -8 0 -12 5 -9 10 3 6 13 10 21 10 8 0 12
-4 9 -10z m2115 0 c0 -5 -4 -10 -10 -10 -5 0 -10 5 -10 10 0 6 5 10 10 10 6 0
10 -4 10 -10z m250 -16 c0 -8 8 -14 17 -14 13 0 14 -3 5 -12 -8 -8 -16 -5 -31
13 -24 29 -26 40 -6 33 8 -4 15 -12 15 -20z m-230 -39 c0 -15 -18 -30 -27 -22
-2 3 -2 15 2 26 7 23 25 19 25 -4z m-2155 -5 c-3 -5 -17 -10 -31 -10 -14 0
-22 4 -19 10 3 6 17 10 31 10 14 0 22 -4 19 -10z m-143 -35 c6 -14 8 -28 5
-32 -8 -8 -36 26 -37 45 0 21 20 13 32 -13z m2382 0 c-7 -16 -51 -32 -61 -21
-4 3 1 6 9 6 9 0 21 7 28 15 16 19 31 19 24 0z m-2543 -21 c12 -14 11 -16 -5
-13 -11 2 -21 10 -24 17 -5 17 13 15 29 -4z m399 12 c0 -3 -4 -8 -10 -11 -5
-3 -10 -1 -10 4 0 6 5 11 10 11 6 0 10 -2 10 -4z m-170 -21 c0 -8 -7 -15 -16
-15 -14 0 -14 3 -4 15 7 8 14 15 16 15 2 0 4 -7 4 -15z m2205 -25 c-3 -5 -18
-10 -33 -10 -21 0 -24 2 -12 10 20 13 53 13 45 0z m-2200 -19 c19 -8 19 -8 -4
-16 -16 -5 -28 -2 -39 9 -15 15 -15 16 3 15 11 0 29 -4 40 -8z m-120 -21 c-3
-5 -10 -10 -16 -10 -5 0 -9 5 -9 10 0 6 7 10 16 10 8 0 12 -4 9 -10z m45 -11
c-7 -11 -14 -19 -16 -16 -7 7 7 37 17 37 6 0 5 -9 -1 -21z m-100 -3 c0 -11
-19 -15 -25 -6 -3 5 1 10 9 10 9 0 16 -2 16 -4z m2430 -11 c-7 -9 -15 -13 -17
-11 -7 7 7 26 19 26 6 0 6 -6 -2 -15z m80 -10 c0 -8 -4 -15 -9 -15 -5 0 -11 7
-15 15 -3 9 0 15 9 15 8 0 15 -7 15 -15z m-2340 -5 c0 -5 -4 -10 -10 -10 -5 0
-10 5 -10 10 0 6 5 10 10 10 6 0 10 -4 10 -10z m120 -11 c0 -5 -7 -9 -15 -9
-8 0 -15 7 -15 15 0 9 6 12 15 9 8 -4 15 -10 15 -15z m-220 -8 c0 -5 -7 -22
-15 -37 -15 -29 -20 -17 -9 24 6 21 24 31 24 13z m2360 -11 c0 -5 -5 -10 -11
-10 -5 0 -7 5 -4 10 3 6 8 10 11 10 2 0 4 -4 4 -10z m-2308 -12 c-8 -8 -9 -15
-1 -25 13 -15 1 -17 -20 -4 -18 12 -7 41 16 41 13 0 14 -3 5 -12z m78 -8 c0
-5 -4 -10 -10 -10 -5 0 -10 5 -10 10 0 6 5 10 10 10 6 0 10 -4 10 -10z m153 4
c7 -7 -26 -42 -35 -37 -4 2 -2 13 5 23 12 21 20 24 30 14z m-370 -50 c-3 -8
-9 -14 -13 -14 -12 0 -20 28 -13 46 6 15 7 15 19 -1 7 -9 10 -23 7 -31z m397
6 c0 -11 -4 -20 -10 -20 -5 0 -10 9 -10 20 0 11 5 20 10 20 6 0 10 -9 10 -20z
m2007 -37 c-46 -34 -57 -28 -17 10 19 17 38 28 42 23 4 -6 -7 -20 -25 -33z
m-2214 6 c-12 -12 -27 -19 -34 -16 -9 3 -4 9 14 17 15 7 27 18 27 23 0 6 3 7
7 3 4 -3 -3 -16 -14 -27z m431 -3 c-3 -9 -10 -16 -15 -16 -6 0 -5 9 1 21 13
24 24 20 14 -5z m1606 -11 c-7 -9 -15 -13 -17 -11 -7 7 7 26 19 26 6 0 6 -6
-2 -15z m-1710 -15 c0 -5 -5 -10 -11 -10 -5 0 -7 5 -4 10 3 6 8 10 11 10 2 0
4 -4 4 -10z m-530 -15 c-7 -8 -17 -15 -22 -15 -6 0 -5 7 2 15 7 8 17 15 22 15
6 0 5 -7 -2 -15z m80 5 c0 -12 -28 -25 -36 -17 -9 9 6 27 22 27 8 0 14 -5 14
-10z m-108 -52 c-2 -10 -8 -18 -12 -18 -9 0 -19 58 -12 65 10 9 29 -29 24 -47z
m301 45 c-7 -2 -19 -2 -25 0 -7 3 -2 5 12 5 14 0 19 -2 13 -5z m167 -17 c0 -3
-4 -8 -10 -11 -5 -3 -10 -1 -10 4 0 6 5 11 10 11 6 0 10 -2 10 -4z m280 0 c0
-3 -4 -8 -10 -11 -5 -3 -10 -1 -10 4 0 6 5 11 10 11 6 0 10 -2 10 -4z m-325
-17 c11 -17 -1 -21 -15 -4 -8 9 -8 15 -2 15 6 0 14 -5 17 -11z m1850 1 c3 -5
-1 -10 -9 -10 -9 0 -16 5 -16 10 0 6 4 10 9 10 6 0 13 -4 16 -10z m-2182 -7
c-7 -2 -19 -2 -25 0 -7 3 -2 5 12 5 14 0 19 -2 13 -5z m227 -7 c0 -2 -8 -10
-17 -17 -16 -13 -17 -12 -4 4 13 16 21 21 21 13z m-155 -16 c3 -5 -1 -10 -9
-10 -9 0 -16 5 -16 10 0 6 4 10 9 10 6 0 13 -4 16 -10z m315 0 c0 -5 -7 -10
-16 -10 -8 0 -12 5 -9 10 3 6 10 10 16 10 5 0 9 -4 9 -10z m20 -30 c0 -5 -2
-10 -4 -10 -3 0 -8 5 -11 10 -3 6 -1 10 4 10 6 0 11 -4 11 -10z m2185 0 c3 -5
-1 -10 -9 -10 -9 0 -16 5 -16 10 0 6 4 10 9 10 6 0 13 -4 16 -10z m-2265 -55
c-14 -17 -30 -11 -30 11 0 8 7 14 15 14 8 0 16 6 16 13 1 6 3 4 6 -6 3 -10 -1
-24 -7 -32z m170 35 c0 -5 -7 -10 -15 -10 -8 0 -15 5 -15 10 0 6 7 10 15 10 8
0 15 -4 15 -10z m-510 -21 c10 -18 9 -20 -7 -17 -10 2 -19 11 -21 21 -5 24 15
21 28 -4z m2656 -34 c-7 -18 -26 -20 -26 -2 0 18 24 41 28 27 2 -6 1 -17 -2
-25z m-301 5 c-3 -5 -11 -10 -16 -10 -6 0 -7 5 -4 10 3 6 11 10 16 10 6 0 7
-4 4 -10z m-2273 -20 c10 0 18 -7 18 -15 0 -17 -35 -21 -45 -5 -5 8 -11 7 -21
-1 -10 -8 -14 -8 -14 0 0 6 5 11 10 11 6 0 10 8 10 17 0 13 3 14 12 5 7 -7 20
-12 30 -12z m118 4 c0 -8 -5 -12 -10 -9 -6 4 -8 11 -5 16 9 14 15 11 15 -7z
m2250 6 c0 -5 -4 -10 -10 -10 -5 0 -10 5 -10 10 0 6 5 10 10 10 6 0 10 -4 10
-10z m-2430 -60 c0 -5 -4 -10 -10 -10 -5 0 -10 5 -10 10 0 6 5 10 10 10 6 0
10 -4 10 -10z m215 -10 c3 -5 1 -10 -4 -10 -6 0 -11 5 -11 10 0 6 2 10 4 10 3
0 8 -4 11 -10z m2325 6 c0 -3 -4 -8 -10 -11 -5 -3 -10 -1 -10 4 0 6 5 11 10
11 6 0 10 -2 10 -4z m-83 -12 c-3 -3 -12 -4 -19 -1 -8 3 -5 6 6 6 11 1 17 -2
13 -5z m205 -39 c4 -17 1 -25 -8 -25 -14 0 -19 31 -7 43 9 10 10 9 15 -18z
m-2712 -5 c0 -5 -7 -10 -15 -10 -8 0 -15 5 -15 10 0 6 7 10 15 10 8 0 15 -4
15 -10z m176 -17 c-10 -10 -19 5 -10 18 6 11 8 11 12 0 2 -7 1 -15 -2 -18z
m2144 17 c0 -5 -4 -10 -10 -10 -5 0 -10 5 -10 10 0 6 5 10 10 10 6 0 10 -4 10
-10z m-1910 -30 c0 -5 -4 -10 -10 -10 -5 0 -10 5 -10 10 0 6 5 10 10 10 6 0
10 -4 10 -10z m-270 -87 c0 -19 -21 -16 -36 5 -20 26 -17 31 11 19 14 -7 25
-18 25 -24z m550 -3 c0 -5 -7 -10 -16 -10 -8 0 -12 5 -9 10 3 6 10 10 16 10 5
0 9 -4 9 -10z m-620 -10 c0 -14 -38 -32 -51 -24 -6 4 -1 11 13 19 29 16 38 18
38 5z m558 -23 c-9 -8 -26 -24 -37 -38 -11 -13 -20 -18 -21 -11 0 17 45 62 62
62 9 -1 7 -5 -4 -13z m-112 -64 c-11 -11 -17 4 -9 23 7 18 8 18 11 1 2 -10 1
-21 -2 -24z m2214 13 c0 -3 -4 -8 -10 -11 -5 -3 -10 -1 -10 4 0 6 5 11 10 11
6 0 10 -2 10 -4z m-2187 -65 c-15 -27 -68 -92 -118 -144 -49 -52 -105 -112
-123 -133 -63 -73 -147 -154 -161 -154 -7 0 -11 -6 -8 -14 4 -10 1 -13 -8 -10
-7 3 -22 -3 -33 -14 -11 -11 -29 -23 -41 -27 -18 -5 -21 -2 -21 22 0 16 8 36
18 44 9 9 49 44 87 79 39 34 95 79 125 100 56 39 120 94 120 104 0 3 -8 6 -17
6 -11 1 -4 7 15 15 17 8 32 18 32 23 0 6 11 13 25 16 14 4 48 34 78 71 28 36
53 65 55 65 2 0 -9 -22 -25 -49z m-298 9 c3 -5 2 -10 -4 -10 -5 0 -13 5 -16
10 -3 6 -2 10 4 10 5 0 13 -4 16 -10z m-225 -8 c0 -13 -12 -22 -22 -16 -10 6
-1 24 13 24 5 0 9 -4 9 -8z m255 -72 c3 -5 -1 -10 -9 -10 -9 0 -16 5 -16 10 0
6 4 10 9 10 6 0 13 -4 16 -10z m-145 -410 c0 -5 -5 -10 -11 -10 -5 0 -7 5 -4
10 3 6 8 10 11 10 2 0 4 -4 4 -10z"/>
<path d="M1147 2200 c3 -11 7 -20 9 -20 2 0 4 9 4 20 0 11 -4 20 -9 20 -5 0
-7 -9 -4 -20z"/>
<path d="M1118 2155 c-4 -39 6 -46 22 -15 8 16 8 24 -3 35 -13 12 -15 10 -19
-20z"/>
<path d="M900 2150 c0 -5 5 -10 10 -10 6 0 10 5 10 10 0 6 -4 10 -10 10 -5 0
-10 -4 -10 -10z"/>
<path d="M910 2080 c-13 -8 -12 -10 3 -10 9 0 17 5 17 10 0 12 -1 12 -20 0z"/>
<path d="M1058 2064 c-9 -9 -31 -20 -49 -24 l-34 -8 32 -1 c21 -1 42 8 60 24
15 13 23 25 18 25 -6 0 -18 -7 -27 -16z"/>
<path d="M2360 1870 c0 -5 5 -10 11 -10 5 0 8 -4 5 -9 -8 -12 5 -72 14 -66 7
5 4 58 -5 83 -5 14 -25 16 -25 2z"/>
<path d="M1805 1790 c-33 -4 -72 -12 -87 -18 -29 -12 -78 -77 -78 -103 0 -9
-7 -30 -15 -45 -19 -37 -19 -88 0 -104 12 -10 15 -10 15 3 0 9 10 21 22 28 18
9 20 9 15 -4 -8 -22 -1 -25 46 -16 23 5 87 15 142 23 55 8 117 22 138 31 37
15 37 15 18 36 -22 24 -94 41 -149 35 -102 -11 -156 -15 -144 -10 9 4 10 9 2
19 -12 15 6 22 120 50 36 9 79 20 95 24 l30 8 -37 7 c-26 6 -35 12 -31 22 3 8
1 14 -5 14 -6 0 -16 2 -24 4 -7 2 -40 0 -73 -4z m58 -157 c-7 -2 -19 -2 -25 0
-7 3 -2 5 12 5 14 0 19 -2 13 -5z m-73 -63 c0 -5 -7 -7 -15 -4 -8 4 -12 10 -9
15 6 11 24 2 24 -11z"/>
<path d="M2280 1718 c0 -16 4 -28 9 -28 18 0 20 17 6 36 -14 18 -14 18 -15 -8z"/>
<path d="M1135 1703 c-26 -7 -93 -53 -77 -53 7 0 10 -4 7 -10 -4 -6 32 -10 99
-10 58 0 106 4 106 9 0 4 11 6 25 3 20 -3 25 0 25 16 0 39 -106 65 -185 45z"/>
<path d="M730 1656 c0 -14 5 -28 10 -31 6 -3 10 5 10 19 0 14 -4 28 -10 31 -6
3 -10 -5 -10 -19z"/>
<path d="M1255 1599 c-128 -12 -216 -51 -223 -96 -3 -20 1 -21 65 -19 37 0 87
-5 110 -13 38 -12 47 -12 80 2 21 9 47 18 58 19 14 3 19 11 18 26 -2 12 2 22
7 22 14 0 12 36 -2 47 -22 17 -41 19 -113 12z m-145 -64 c-33 -19 -49 -19 -24
0 10 8 26 14 34 14 9 0 4 -6 -10 -14z"/>
<path d="M811 1552 c-15 -27 -14 -29 10 -35 26 -7 37 19 16 40 -14 14 -16 13
-26 -5z"/>
<path d="M1690 1489 c0 -18 68 -39 127 -38 l58 1 -53 13 c-30 7 -59 18 -65 24
-14 14 -67 15 -67 0z"/>
<path d="M1270 1445 c-43 -15 -54 -29 -35 -45 12 -10 24 -8 70 15 30 14 55 30
55 35 0 11 -50 8 -90 -5z"/>
<path d="M1798 1200 c9 -16 23 -30 30 -30 8 0 5 11 -10 30 -28 39 -42 39 -20
0z"/>
<path d="M1900 1105 c13 -14 28 -25 34 -25 5 0 23 -12 38 -27 21 -20 28 -23
28 -11 0 22 -78 88 -104 88 -19 0 -18 -1 4 -25z"/>
<path d="M1218 1063 c-66 -70 -75 -121 -32 -188 l25 -40 -6 58 c-6 54 -4 62
35 132 45 84 37 99 -22 38z"/>
<path d="M1649 1054 c-19 -14 -44 -30 -56 -35 -24 -9 -31 -29 -11 -29 16 0 78
43 78 54 0 5 8 15 18 22 9 7 14 14 11 14 -3 0 -21 -12 -40 -26z"/>
<path d="M1850 961 c-47 -24 -215 -79 -264 -87 -23 -3 -35 -9 -28 -13 20 -12
142 19 194 49 10 6 26 10 36 10 10 0 23 5 29 11 15 15 36 1 29 -18 -7 -17 8
-9 42 20 24 22 29 47 10 47 -7 -1 -29 -9 -48 -19z"/>
<path d="M1256 898 c13 -23 47 -58 57 -58 5 0 22 -9 39 -21 36 -26 49 -17 20
14 -12 13 -22 31 -22 39 0 17 -13 24 -68 33 -25 4 -32 2 -26 -7z"/>
<path d="M1806 893 c-3 -4 -6 -14 -6 -24 0 -21 25 -16 34 6 5 14 -17 28 -28
18z"/>
<path d="M1752 839 c2 -7 10 -15 17 -17 8 -3 12 1 9 9 -2 7 -10 15 -17 17 -8
3 -12 -1 -9 -9z"/>
<path d="M1417 783 c-18 -4 -17 -6 3 -20 12 -8 24 -12 28 -8 3 3 0 10 -7 14
-11 7 -11 10 0 14 17 7 1 7 -24 0z"/>
<path d="M1740 340 c-13 -8 -12 -10 3 -10 9 0 17 5 17 10 0 12 -1 12 -20 0z"/>
<path d="M1698 323 c7 -3 16 -2 19 1 4 3 -2 6 -13 5 -11 0 -14 -3 -6 -6z"/>
<path d="M1608 313 c7 -3 16 -2 19 1 4 3 -2 6 -13 5 -11 0 -14 -3 -6 -6z"/>
<path d="M1283 2843 c9 -2 23 -2 30 0 6 3 -1 5 -18 5 -16 0 -22 -2 -12 -5z"/>
</g>
</svg>
